<?xml version="1.0" encoding="UTF-8"?>
<svg id="Layer_1" xmlns="http://www.w3.org/2000/svg" version="1.1" viewBox="0 0 64 64">
  <!-- Generator: Adobe Illustrator 29.3.0, SVG Export Plug-In . SVG Version: 2.1.0 Build 146)  -->
  <defs>
    <style>
      .st0 {
        fill: #fff;
      }

      .st1 {
        fill: #387f43;
      }
    </style>
  </defs>
  <rect class="st1" x=".7" y="1" width="62.4" height="61.6" rx="30.8" ry="30.8"/>
  <g>
    <path class="st0" d="M49.5,35.4c0,9.6-7.8,17.3-17.3,17.3s-1.6,0-2.6-.2c-.9-.5-1.8-1.2-2.6-2.1-1.2-1.4-2.1-2.8-2.8-4.3,2.2,1.6,5,2.6,7.9,2.6,7.4,0,13.4-6,13.4-13.4s-2.9-9.6-7.1-11.8c.9-.9,1.6-1.9,2.2-3,0,0,0-.2,0-.2,5.3,3,8.8,8.6,8.8,15.1Z"/>
    <path class="st0" d="M25.8,51.5c-5.7-6.8-6.3-15.4-4-20.3,2-4.1,6.8-5.3,11.6-6.8,7.8-2.5,7.2-9.6,4.7-15.2-4.1,7.6-21,4.4-24.9,19.3-3.4,13.1,7.9,20,7.9,20-10.5-12.9-3.1-28,10.2-30.1-8.8,4-14.5,9.8-13.2,19.6,1.2,9,7.8,13.4,7.8,13.4Z"/>
  </g>
</svg>